<svg id="Capa_1" data-name="Capa 1" xmlns="http://www.w3.org/2000/svg" xmlns:xlink="http://www.w3.org/1999/xlink" viewBox="0 0 1150 900"><defs><style>.cls-1{fill:#001b38;}.cls-2{fill:none;}.cls-3{fill:#fff;}.cls-4{fill:url(#Degradado_sin_nombre_2);}</style><linearGradient id="Degradado_sin_nombre_2" x1="565.81" y1="561.98" x2="562.47" y2="352.59" gradientUnits="userSpaceOnUse"><stop offset="0.26" stop-color="#09cef2"/><stop offset="1" stop-color="#7ec344"/></linearGradient></defs><rect class="cls-1" x="-20.4" y="1" width="1170" height="899"/><path class="cls-2" d="M514.25,564.9a10.45,10.45,0,0,0,3.58-1.29,6.7,6.7,0,0,0,2.45-2.56,10.27,10.27,0,0,0,0-8.41,6.7,6.7,0,0,0-2.45-2.56,10.67,10.67,0,0,0-3.58-1.29,23.47,23.47,0,0,0-4.15-.36h-8.22v16.83h8.22A23.47,23.47,0,0,0,514.25,564.9Z"/><polygon class="cls-2" points="446.49 553.11 449.86 548.43 446.49 548.43 446.49 553.11"/><path class="cls-1" d="M609,453.68l-43.47,35.06L640.12,400l31.29-45.68H596.75l-33.38,56.51-32.79-56.51H453.87l67,95.61-62.6,86.77H473.2v11.73H449.86l-3.38,4.68v2.54a392.55,392.55,0,0,1,41.46-9.14V536.7H511a36.67,36.67,0,0,1,10.1,1.3,22.63,22.63,0,0,1,7.72,3.78l.55,0,34-55.37,30.46,50.57a45.49,45.49,0,0,1,7.31,2.53v3.4q8.49.82,16.79,2V536.7h40.65v11.73h-19c11.59,2.24,22.87,5,33.77,8.09V543.74Z"/><path class="cls-3" d="M308.4,584.33a6,6,0,0,1-.84-3.49v-8.33h23.67V560.79H307.56V548.43h26.71V536.7H293.62v44.14q0,8.14,3.66,12.27t11.88,4.12h26.09V585.5H311.67Q309.26,585.5,308.4,584.33Z"/><polygon class="cls-3" points="382.61 571.08 362.59 536.7 349.01 536.7 349.01 597.23 362.77 597.23 362.77 560.52 376.71 585.5 388.41 585.5 402.44 560.52 402.44 597.23 416.11 597.23 416.11 536.7 402.53 536.7 382.61 571.08"/><path class="cls-3" d="M446.48,553.11v-4.68h3.38l8.46-11.73H432.55v44.14q0,8.14,3.66,12.27t11.88,4.12h26.09V585.5H450.59c-1.6,0-2.69-.39-3.26-1.17a5.94,5.94,0,0,1-.85-3.49v-8.33h23.68V560.79H446.48v-5.14l-2.29.64Z"/><path class="cls-3" d="M444.19,556.29l2.29-.64v-2.54Z"/><polygon class="cls-3" points="473.2 548.43 473.2 536.7 458.32 536.7 449.86 548.43 473.2 548.43"/><path class="cls-3" d="M487.94,597.23h13.94V577h7.32L521,597.23h15.72L522.52,574a18.66,18.66,0,0,0,9.73-6.14q3.5-4.33,3.49-11.14a19.82,19.82,0,0,0-1.79-8.6,17.26,17.26,0,0,0-5.05-6.31s-.06,0-.09-.07c-14,.94-27.61,2.53-40.87,4.73Zm13.94-48.8h8.22a23.47,23.47,0,0,1,4.15.36,10.67,10.67,0,0,1,3.58,1.29,6.7,6.7,0,0,1,2.45,2.56,10.27,10.27,0,0,1,0,8.41,6.7,6.7,0,0,1-2.45,2.56,10.45,10.45,0,0,1-3.58,1.29,23.47,23.47,0,0,1-4.15.36h-8.22Z"/><path class="cls-3" d="M511,536.7H487.94v9.81c13.26-2.2,26.91-3.79,40.87-4.73a22.63,22.63,0,0,0-7.72-3.78A36.67,36.67,0,0,0,511,536.7Z"/><path class="cls-3" d="M593.83,536.94c-.91-.24-1.84-.45-2.79-.64A60.6,60.6,0,0,0,579,535.18a51.08,51.08,0,0,0-13,1.65,31.34,31.34,0,0,0-11.21,5.42,27,27,0,0,0-7.86,9.8q-3,6-2.95,14.91a35.1,35.1,0,0,0,2.72,14.46,27.83,27.83,0,0,0,7.24,9.9A28.83,28.83,0,0,0,564.37,597a42.8,42.8,0,0,0,12.38,1.79,50.53,50.53,0,0,0,15.32-2.15,39,39,0,0,0,10.77-5V561.23H575.59v12.18h13.67v11.28a23.12,23.12,0,0,1-4.92,1.57,33,33,0,0,1-6.7.58,24.49,24.49,0,0,1-7.1-1,16.23,16.23,0,0,1-6.12-3.36,16.87,16.87,0,0,1-4.34-6.13,23.52,23.52,0,0,1-1.65-9.36,23.18,23.18,0,0,1,1.74-9.62,16.11,16.11,0,0,1,4.65-6.09,17,17,0,0,1,6.66-3.18,33.18,33.18,0,0,1,7.77-.9,48,48,0,0,1,12.42,1.53,55.39,55.39,0,0,1,9.47,3.31v-9.14l-4-.38Z"/><path class="cls-3" d="M617.93,580.84q0,8.14,3.67,12.27t11.88,4.12h26.09V585.5H636c-1.61,0-2.69-.39-3.26-1.17a5.87,5.87,0,0,1-.85-3.49v-8.33h23.68V560.79H631.87V548.43h7.69q-10.63-2.05-21.63-3.58Z"/><path class="cls-3" d="M712.55,574.13,685.21,536.7H673.33v7L685,560.08q-5.76-1.86-11.67-3.56v40.71h13.58V559.8l27.34,37.43h11.88V536.7H712.55Z"/><path class="cls-4" d="M673.33,543.74,609,453.68l-43.47,35.06L640.12,400l31.29-45.68H596.75l-33.38,56.51-32.79-56.51H453.87l67,95.61-62.6,86.77H473.2v11.73H449.86l-3.38,4.68v2.54a392.55,392.55,0,0,1,41.46-9.14V536.7H511a36.67,36.67,0,0,1,10.1,1.3,22.63,22.63,0,0,1,7.72,3.78l.55,0,34-55.37,30.46,50.57,3.35,5.55,4,.38q8.49.82,16.79,2,11,1.51,21.63,3.58c11.59,2.24,22.87,5,33.77,8.09q5.91,1.69,11.67,3.56Z"/><polygon class="cls-3" points="736.04 548.43 754.72 548.43 754.72 597.23 768.65 597.23 768.65 548.43 787.33 548.43 787.33 536.7 736.04 536.7 736.04 548.43"/><path class="cls-3" d="M814.67,585.5c-1.61,0-2.7-.39-3.26-1.17a5.87,5.87,0,0,1-.85-3.49v-8.33h23.67V560.79H810.56V548.43h26.71V536.7H796.62v44.14q0,8.14,3.66,12.27t11.89,4.12h26.08V585.5Z"/></svg>