<svg id="Capa_1" data-name="Capa 1" xmlns="http://www.w3.org/2000/svg" xmlns:xlink="http://www.w3.org/1999/xlink" viewBox="0 0 881 238"><defs><style>.cls-1{fill:#001b38;}.cls-2{fill:none;}.cls-3{fill:#fff;}.cls-4{fill:url(#Degradado_sin_nombre_2);}.cls-5{fill:url(#Degradado_sin_nombre_2-2);}</style><linearGradient id="Degradado_sin_nombre_2" x1="742.32" y1="300.93" x2="737.66" y2="8.59" gradientUnits="userSpaceOnUse"><stop offset="0.26" stop-color="#09cef2"/><stop offset="1" stop-color="#7ec344"/></linearGradient><linearGradient id="Degradado_sin_nombre_2-2" x1="677.89" y1="301.95" x2="673.23" y2="9.62" xlink:href="#Degradado_sin_nombre_2"/></defs><rect class="cls-1" x="-95" y="-66" width="1027" height="356"/><path class="cls-2" d="M649.93,105.2H679.7V120H649.93v10.47a7.36,7.36,0,0,0,1.07,4.39c.71,1,2.07,1.46,4.1,1.46H673l17.79-24.65-15.4-22H649.93Z"/><path class="cls-2" d="M281.82,91.74a13.19,13.19,0,0,0-4.49-1.63,29.81,29.81,0,0,0-5.22-.45H261.77v21.17h10.34a29.81,29.81,0,0,0,5.22-.45,13.19,13.19,0,0,0,4.49-1.63,8.51,8.51,0,0,0,3.09-3.21,13,13,0,0,0,0-10.59A8.51,8.51,0,0,0,281.82,91.74Z"/><path class="cls-3" d="M18.48,134.81a7.44,7.44,0,0,1-1.07-4.39V120H47.19V105.2H17.41V89.66H51V74.91H-.11v55.51q0,10.25,4.6,15.42t15,5.18h32.8V136.27H22.58C20.56,136.27,19.19,135.79,18.48,134.81Z"/><polygon class="cls-3" points="111.78 118.15 86.62 74.91 69.54 74.91 69.54 151.02 86.84 151.02 86.84 104.86 104.37 136.27 119.09 136.27 136.73 104.86 136.73 151.02 153.92 151.02 153.92 74.91 136.84 74.91 111.78 118.15"/><path class="cls-3" d="M193.18,134.81a7.44,7.44,0,0,1-1.07-4.39V120h29.78V105.2H192.11V89.66h33.6V74.91H174.59v55.51q0,10.25,4.6,15.42T194.14,151h32.8V136.27H197.28C195.26,136.27,193.89,135.79,193.18,134.81Z"/><path class="cls-3" d="M300,114.15q4.38-5.46,4.38-14a24.91,24.91,0,0,0-2.25-10.81,21.73,21.73,0,0,0-6.35-7.93,28.36,28.36,0,0,0-9.83-4.85,46.56,46.56,0,0,0-12.69-1.63h-29V151h17.53V125.58H271L285.81,151h19.78l-17.87-29.16A23.45,23.45,0,0,0,300,114.15Zm-15.06-8.61a8.51,8.51,0,0,1-3.09,3.21,13.19,13.19,0,0,1-4.49,1.63,29.81,29.81,0,0,1-5.22.45H261.77V89.66h10.34a29.81,29.81,0,0,1,5.22.45,13.19,13.19,0,0,1,4.49,1.63A8.51,8.51,0,0,1,284.91,95a13,13,0,0,1,0,10.59Z"/><path class="cls-3" d="M354.46,121.07h17.19v14.19a29.14,29.14,0,0,1-6.18,2A41.63,41.63,0,0,1,357,138a31.06,31.06,0,0,1-8.93-1.29,20.58,20.58,0,0,1-7.7-4.22,21.35,21.35,0,0,1-5.45-7.72A29.61,29.61,0,0,1,332.88,113a29.16,29.16,0,0,1,2.2-12.11,20.12,20.12,0,0,1,5.84-7.65,21.25,21.25,0,0,1,8.37-4,41.93,41.93,0,0,1,9.77-1.13A60.44,60.44,0,0,1,374.68,90a70.48,70.48,0,0,1,11.91,4.16V78.4a59.62,59.62,0,0,0-12.7-4A77.27,77.27,0,0,0,358.72,73a63.93,63.93,0,0,0-16.34,2.08,39.5,39.5,0,0,0-14.1,6.81,33.92,33.92,0,0,0-9.89,12.33q-3.7,7.61-3.71,18.75a44.08,44.08,0,0,0,3.43,18.18,34.91,34.91,0,0,0,9.1,12.44,36,36,0,0,0,13.15,7.1,53.62,53.62,0,0,0,15.56,2.25,63.38,63.38,0,0,0,19.26-2.7,49.39,49.39,0,0,0,13.54-6.31V105.76H354.46Z"/><path class="cls-3" d="M426.3,134.81a7.44,7.44,0,0,1-1.07-4.39V120H455V105.2H425.23V89.66h33.6V74.91H407.71v55.51q0,10.25,4.6,15.42T427.26,151h32.8V136.27H430.4C428.38,136.27,427,135.79,426.3,134.81Z"/><polygon class="cls-3" points="526.68 121.97 492.31 74.91 477.36 74.91 477.36 151.02 494.44 151.02 494.44 103.96 528.82 151.02 543.76 151.02 543.76 74.91 526.68 74.91 526.68 121.97"/><polygon class="cls-3" points="620.72 74.91 556.23 74.91 556.23 89.66 579.71 89.66 579.71 151.02 597.24 151.02 597.24 89.66 620.72 89.66 620.72 74.91"/><path class="cls-3" d="M655.1,136.27c-2,0-3.39-.48-4.1-1.46a7.36,7.36,0,0,1-1.07-4.39V120H679.7V105.2H649.93V89.66h25.43L665,74.91H632.4v55.51q0,10.25,4.61,15.42T652,151h10.38L673,136.27Z"/><path class="cls-2" d="M700.53,217.85q16.56-1.09,33.58-1.11c15.23,0,30.22.67,44.88,2l-39.11-64.93Z"/><path class="cls-4" d="M792.69,116l-50.3,40.57L828.67,53.86,864.88,1H778.5L739.88,66.38,701.94,1H613.18L665,74.91h18.5V89.66h-8.16l15.4,22L673,136.27h11.79V151H662.33L602,234.68a471.15,471.15,0,0,1,98.54-16.83l39.35-64.07L779,218.71A461.22,461.22,0,0,1,880.6,239.07Z"/><polygon class="cls-3" points="683.52 89.66 683.52 74.91 665.02 74.91 675.36 89.66 683.52 89.66"/><polygon class="cls-5" points="683.52 89.66 683.52 74.91 665.02 74.91 675.36 89.66 683.52 89.66"/><polygon class="cls-3" points="684.76 136.27 672.97 136.27 662.33 151.02 684.76 151.02 684.76 136.27"/></svg>