<?xml version="1.0" encoding="utf-8"?>
<!-- Generator: Adobe Illustrator 23.0.1, SVG Export Plug-In . SVG Version: 6.00 Build 0)  -->
<svg version="1.1" id="Layer_1" xmlns="http://www.w3.org/2000/svg" xmlns:xlink="http://www.w3.org/1999/xlink" x="0px" y="0px"
	 viewBox="0 0 274 273.4" style="enable-background:new 0 0 274 273.4;" xml:space="preserve">
<style type="text/css">
	.st0{clip-path:url(#SVGID_2_);fill:url(#SVGID_3_);}
	.st1{fill:#E1E1E1;}
	.st2{fill:#FFFFFF;}
	.st3{fill:none;stroke:#F7C5C9;stroke-width:0.15;stroke-miterlimit:10;}
	.st4{opacity:0.24;fill:none;stroke:#F7C5C9;stroke-width:0.15;stroke-miterlimit:10;}
	.st5{fill:#F7C5C9;stroke:#F7C5C9;stroke-width:0.15;stroke-miterlimit:10;}
	.st6{fill:#F7C5C9;}
</style>
<g>
	<defs>
		<circle id="SVGID_1_" cx="136.3" cy="134.6" r="109.7"/>
	</defs>
	<clipPath id="SVGID_2_">
		<use xlink:href="#SVGID_1_"  style="overflow:visible;"/>
	</clipPath>
	<linearGradient id="SVGID_3_" gradientUnits="userSpaceOnUse" x1="11.2714" y1="125.6298" x2="348.0156" y2="125.6298">
		<stop  offset="0" style="stop-color:#E5007E"/>
		<stop  offset="1" style="stop-color:#211A4A"/>
	</linearGradient>
	<rect x="11.3" y="-8.8" class="st0" width="336.7" height="268.8"/>
</g>
<path class="st1" d="M57.9,136.4c0.5,0,0.9,0.4,0.9,0.9c0,0.5-0.4,0.9-0.9,0.9c-0.5,0-0.9-0.4-0.9-0.9
	C56.9,136.8,57.3,136.4,57.9,136.4z"/>
<path class="st1" d="M57.9,151.6c0.5,0,0.9,0.4,0.9,0.9c0,0.5-0.4,0.9-0.9,0.9c-0.5,0-0.9-0.4-0.9-0.9
	C56.9,152.1,57.3,151.6,57.9,151.6z"/>
<path class="st1" d="M57.9,166.9c0.5,0,0.9,0.4,0.9,0.9c0,0.5-0.4,0.9-0.9,0.9c-0.5,0-0.9-0.4-0.9-0.9
	C56.9,167.3,57.3,166.9,57.9,166.9z"/>
<path class="st1" d="M57.9,182.1c0.5,0,0.9,0.4,0.9,0.9c0,0.5-0.4,0.9-0.9,0.9c-0.5,0-0.9-0.4-0.9-0.9
	C56.9,182.5,57.3,182.1,57.9,182.1z"/>
<path class="st1" d="M57.9,197.3c0.5,0,0.9,0.4,0.9,0.9c0,0.5-0.4,0.9-0.9,0.9c-0.5,0-0.9-0.4-0.9-0.9
	C56.9,197.7,57.3,197.3,57.9,197.3z"/>
<path class="st1" d="M42.6,136.4c0.5,0,0.9,0.4,0.9,0.9c0,0.5-0.4,0.9-0.9,0.9c-0.5,0-0.9-0.4-0.9-0.9
	C41.7,136.8,42.1,136.4,42.6,136.4z"/>
<path class="st1" d="M42.6,151.6c0.5,0,0.9,0.4,0.9,0.9c0,0.5-0.4,0.9-0.9,0.9c-0.5,0-0.9-0.4-0.9-0.9
	C41.7,152.1,42.1,151.6,42.6,151.6z"/>
<path class="st1" d="M42.6,166.9c0.5,0,0.9,0.4,0.9,0.9c0,0.5-0.4,0.9-0.9,0.9c-0.5,0-0.9-0.4-0.9-0.9
	C41.7,167.3,42.1,166.9,42.6,166.9z"/>
<path class="st1" d="M42.6,182.1c0.5,0,0.9,0.4,0.9,0.9c0,0.5-0.4,0.9-0.9,0.9c-0.5,0-0.9-0.4-0.9-0.9
	C41.7,182.5,42.1,182.1,42.6,182.1z"/>
<path class="st1" d="M27.4,136.4c0.5,0,0.9,0.4,0.9,0.9c0,0.5-0.4,0.9-0.9,0.9c-0.5,0-0.9-0.4-0.9-0.9
	C26.5,136.8,26.9,136.4,27.4,136.4z"/>
<path class="st1" d="M27.4,151.6c0.5,0,0.9,0.4,0.9,0.9c0,0.5-0.4,0.9-0.9,0.9c-0.5,0-0.9-0.4-0.9-0.9
	C26.5,152.1,26.9,151.6,27.4,151.6z"/>
<path class="st1" d="M72.2,137.3c0,0.5,0.4,0.9,0.9,0.9v-1.8C72.6,136.4,72.2,136.8,72.2,137.3z"/>
<path class="st1" d="M57.9,138.3c0.5,0,0.9-0.4,0.9-0.9c0-0.5-0.4-0.9-0.9-0.9c-0.5,0-0.9,0.4-0.9,0.9
	C56.9,137.8,57.3,138.3,57.9,138.3z"/>
<path class="st1" d="M42.6,138.3c0.5,0,0.9-0.4,0.9-0.9c0-0.5-0.4-0.9-0.9-0.9c-0.5,0-0.9,0.4-0.9,0.9
	C41.7,137.8,42.1,138.3,42.6,138.3z"/>
<path class="st1" d="M27.4,138.3c0.5,0,0.9-0.4,0.9-0.9c0-0.5-0.4-0.9-0.9-0.9c-0.5,0-0.9,0.4-0.9,0.9
	C26.5,137.8,26.9,138.3,27.4,138.3z"/>
<path class="st1" d="M72.2,152.6c0,0.5,0.4,0.9,0.9,0.9v-1.8C72.6,151.6,72.2,152.1,72.2,152.6z"/>
<path class="st1" d="M57.9,153.5c0.5,0,0.9-0.4,0.9-0.9c0-0.5-0.4-0.9-0.9-0.9c-0.5,0-0.9,0.4-0.9,0.9
	C56.9,153.1,57.3,153.5,57.9,153.5z"/>
<path class="st1" d="M42.6,153.5c0.5,0,0.9-0.4,0.9-0.9c0-0.5-0.4-0.9-0.9-0.9c-0.5,0-0.9,0.4-0.9,0.9
	C41.7,153.1,42.1,153.5,42.6,153.5z"/>
<path class="st1" d="M27.4,153.5c0.5,0,0.9-0.4,0.9-0.9c0-0.5-0.4-0.9-0.9-0.9c-0.5,0-0.9,0.4-0.9,0.9
	C26.5,153.1,26.9,153.5,27.4,153.5z"/>
<path class="st1" d="M72.2,167.8c0,0.5,0.4,0.9,0.9,0.9v-1.8C72.6,166.9,72.2,167.3,72.2,167.8z"/>
<path class="st1" d="M57.9,168.7c0.5,0,0.9-0.4,0.9-0.9c0-0.5-0.4-0.9-0.9-0.9c-0.5,0-0.9,0.4-0.9,0.9
	C56.9,168.3,57.3,168.7,57.9,168.7z"/>
<path class="st1" d="M42.6,168.7c0.5,0,0.9-0.4,0.9-0.9c0-0.5-0.4-0.9-0.9-0.9c-0.5,0-0.9,0.4-0.9,0.9
	C41.7,168.3,42.1,168.7,42.6,168.7z"/>
<path class="st1" d="M72.2,183c0,0.5,0.4,0.9,0.9,0.9v-1.8C72.6,182.1,72.2,182.5,72.2,183z"/>
<path class="st1" d="M57.9,183.9c0.5,0,0.9-0.4,0.9-0.9c0-0.5-0.4-0.9-0.9-0.9c-0.5,0-0.9,0.4-0.9,0.9
	C56.9,183.5,57.3,183.9,57.9,183.9z"/>
<path class="st1" d="M42.6,183.9c0.5,0,0.9-0.4,0.9-0.9c0-0.5-0.4-0.9-0.9-0.9c-0.5,0-0.9,0.4-0.9,0.9
	C41.7,183.5,42.1,183.9,42.6,183.9z"/>
<path class="st1" d="M57.9,60.2c0.5,0,0.9,0.4,0.9,0.9c0,0.5-0.4,0.9-0.9,0.9c-0.5,0-0.9-0.4-0.9-0.9C56.9,60.6,57.3,60.2,57.9,60.2
	z"/>
<path class="st1" d="M57.9,75.4c0.5,0,0.9,0.4,0.9,0.9c0,0.5-0.4,0.9-0.9,0.9c-0.5,0-0.9-0.4-0.9-0.9C56.9,75.8,57.3,75.4,57.9,75.4
	z"/>
<path class="st1" d="M57.9,90.6c0.5,0,0.9,0.4,0.9,0.9c0,0.5-0.4,0.9-0.9,0.9c-0.5,0-0.9-0.4-0.9-0.9C56.9,91,57.3,90.6,57.9,90.6z"
	/>
<path class="st1" d="M57.9,105.8c0.5,0,0.9,0.4,0.9,0.9c0,0.5-0.4,0.9-0.9,0.9c-0.5,0-0.9-0.4-0.9-0.9
	C56.9,106.2,57.3,105.8,57.9,105.8z"/>
<path class="st1" d="M57.9,121.1c0.5,0,0.9,0.4,0.9,0.9c0,0.5-0.4,0.9-0.9,0.9c-0.5,0-0.9-0.4-0.9-0.9
	C56.9,121.5,57.3,121.1,57.9,121.1z"/>
<path class="st1" d="M42.6,90.6c0.5,0,0.9,0.4,0.9,0.9c0,0.5-0.4,0.9-0.9,0.9c-0.5,0-0.9-0.4-0.9-0.9C41.7,91,42.1,90.6,42.6,90.6z"
	/>
<path class="st1" d="M42.6,105.8c0.5,0,0.9,0.4,0.9,0.9c0,0.5-0.4,0.9-0.9,0.9c-0.5,0-0.9-0.4-0.9-0.9
	C41.7,106.2,42.1,105.8,42.6,105.8z"/>
<path class="st1" d="M42.6,121.1c0.5,0,0.9,0.4,0.9,0.9c0,0.5-0.4,0.9-0.9,0.9c-0.5,0-0.9-0.4-0.9-0.9
	C41.7,121.5,42.1,121.1,42.6,121.1z"/>
<path class="st1" d="M27.4,121.1c0.5,0,0.9,0.4,0.9,0.9c0,0.5-0.4,0.9-0.9,0.9c-0.5,0-0.9-0.4-0.9-0.9
	C26.5,121.5,26.9,121.1,27.4,121.1z"/>
<path class="st1" d="M72.6,199.1c0.5,0,0.9-0.4,0.9-0.9c0-0.5-0.4-0.9-0.9-0.9c-0.5,0-0.9,0.4-0.9,0.9
	C71.7,198.7,72.1,199.1,72.6,199.1z"/>
<path class="st1" d="M72.6,214.4c0.5,0,0.9-0.4,0.9-0.9c0-0.5-0.4-0.9-0.9-0.9c-0.5,0-0.9,0.4-0.9,0.9
	C71.7,214,72.1,214.4,72.6,214.4z"/>
<rect x="114.9" y="126.7" class="st2" width="6.7" height="50.4"/>
<rect x="73.7" y="76.9" class="st2" width="6.8" height="49.2"/>
<path class="st2" d="M200.7,147.2c0.1,0.1,0.2,0.2,0.2,0.3l12.9,29.4l6.5,0l-22-50.3L176.4,177l6.5,0l15.4-35.4L200.7,147.2z"/>
<polygon class="st2" points="81.1,139.7 81.1,176.8 108.7,176.8 "/>
<path class="st2" d="M171.9,77.3l-1.2-0.3l-2.6-0.4l5.4-8l-6.5,0l-3.9,7.9l-1.3,0.3c-2.3,0.3-4.4,0.9-6.5,1.8l-0.9,0.4
	c-12.7,5.9-18.2,21-12.4,33.7c2.8,6.2,7.9,10.8,14.3,13.2c6.1,2.3,12.8,2.1,18.7-0.5l0.9-0.4c12.7-5.9,18.2-21,12.4-33.7
	C185.3,84.3,179.2,79.2,171.9,77.3z M184.7,108.9c-1.6,4.4-4.6,8-8.6,10.4l0.1,0.1l-2.3,1.1c-2.8,1.3-5.7,1.9-8.6,1.9
	c-7.7,0-15.2-4.4-18.6-11.9c-4.5-9.6-0.8-21,8.2-26.3l0-0.1l2-0.9c10.2-4.7,22.4-0.3,27.2,10C186.3,98.2,186.5,103.7,184.7,108.9z"
	/>
<path class="st2" d="M114.2,122.6c-11.3,0-20.4-9.1-20.4-20.4s9.1-20.4,20.4-20.4c5.6,0,10.7,2.3,14.4,5.9l3.6-3.6
	c-4.6-4.6-10.9-7.4-17.9-7.4c-14,0-25.4,11.4-25.4,25.4s11.4,25.4,25.4,25.4c7,0,13.3-2.8,17.9-7.4l-3.5-3.5
	C125,120.3,119.9,122.6,114.2,122.6z"/>
<path class="st2" d="M155.4,172.2c-11.3,0-20.4-9.1-20.4-20.4c0-11.3,9.1-20.4,20.4-20.4c5.6,0,10.7,2.3,14.4,5.9l3.6-3.6
	c-4.6-4.6-10.9-7.4-17.9-7.4c-14,0-25.4,11.4-25.4,25.4c0,14,11.4,25.4,25.4,25.4c7,0,13.3-2.8,17.9-7.4l-3.5-3.5
	C166.2,169.9,161.1,172.2,155.4,172.2z"/>
<polygon class="st2" points="107.9,126.1 80.5,126.1 108,163.3 "/>
<path class="st3" d="M128.7,116.5c3.7-3.7,5.9-8.8,5.9-14.4c0-5.7-2.3-10.8-6-14.5L114.2,102L128.7,116.5z"/>
<path class="st3" d="M146.4,69.8l-14.2,14.2c4.6,4.6,7.4,11,7.4,18s-2.8,13.4-7.4,18l14.2,14.2l32.2-32.2L146.4,69.8z"/>
<path class="st4" d="M132.2,84.1l-3.6,3.6c3.7,3.7,6,8.8,6,14.5c0,5.6-2.3,10.7-5.9,14.4l3.5,3.5c4.6-4.6,7.4-11,7.4-18
	S136.8,88.7,132.2,84.1z"/>
<path class="st3" d="M169.9,166.2c3.7-3.7,5.9-8.8,5.9-14.4c0-5.7-2.3-10.8-6-14.5l-14.4,14.4L169.9,166.2z"/>
<path class="st3" d="M187.6,119.5l-14.2,14.2c4.6,4.6,7.4,11,7.4,18c0,7-2.8,13.4-7.4,18l14.2,14.2l32.2-32.2L187.6,119.5z"/>
<path class="st4" d="M173.4,133.7l-3.6,3.6c3.7,3.7,6,8.8,6,14.5c0,5.6-2.3,10.7-5.9,14.4l3.5,3.5c4.6-4.6,7.4-11,7.4-18
	C180.8,144.7,178,138.3,173.4,133.7z"/>
<polygon class="st3" points="167.2,68.5 146.8,108.6 173.4,68.6 "/>
<line class="st3" x1="75.4" y1="131.5" x2="115.2" y2="185.5"/>
<line class="st3" x1="80.6" y1="126.1" x2="120.4" y2="180.1"/>
<polygon class="st3" points="212.7,188.2 218.7,188.2 198.2,141.7 177.9,188.3 183.9,188.3 "/>
<polygon class="st3" points="209.2,177 213.8,177 198.2,141.7 182.8,177.1 187.4,177.1 "/>
<circle class="st5" cx="114.2" cy="102" r="0.3"/>
<circle class="st5" cx="165" cy="102" r="0.3"/>
<circle class="st6" cx="155.4" cy="151.7" r="0.3"/>
</svg>
